<mxfile host="app.diagrams.net" modified="2024-05-11T01:15:41.058Z" agent="Mozilla/5.0 (Windows NT 10.0; Win64; x64) AppleWebKit/537.36 (KHTML, like Gecko) Chrome/124.0.0.0 Safari/537.36" etag="IsAQM42C0pquk22MaPMe" version="24.4.0" type="device">
  <diagram name="PÃ¡gina-1" id="6KGPkxfMHaubWKiwihbh">
    <mxGraphModel dx="1213" dy="1781" grid="1" gridSize="10" guides="1" tooltips="1" connect="1" arrows="1" fold="1" page="1" pageScale="1" pageWidth="827" pageHeight="1169" math="0" shadow="0">
      <root>
        <mxCell id="0" />
        <mxCell id="1" parent="0" />
        <mxCell id="u66wXMgfg88VbOdrZegT-89" value="" style="group" vertex="1" connectable="0" parent="1">
          <mxGeometry x="80" y="-40" width="670" height="480" as="geometry" />
        </mxCell>
        <mxCell id="u66wXMgfg88VbOdrZegT-88" value="" style="rounded=1;whiteSpace=wrap;html=1;fontFamily=Helvetica;fontSize=11;fontColor=default;labelBackgroundColor=default;arcSize=3;" vertex="1" parent="u66wXMgfg88VbOdrZegT-89">
          <mxGeometry width="670" height="480" as="geometry" />
        </mxCell>
        <mxCell id="u66wXMgfg88VbOdrZegT-25" style="edgeStyle=none;rounded=0;orthogonalLoop=1;jettySize=auto;html=1;strokeColor=default;align=center;verticalAlign=middle;fontFamily=Helvetica;fontSize=11;fontColor=default;labelBackgroundColor=default;endArrow=classic;entryX=0;entryY=0.5;entryDx=0;entryDy=0;" edge="1" parent="u66wXMgfg88VbOdrZegT-89" source="u66wXMgfg88VbOdrZegT-2" target="u66wXMgfg88VbOdrZegT-4">
          <mxGeometry relative="1" as="geometry">
            <mxPoint x="80" y="260" as="targetPoint" />
          </mxGeometry>
        </mxCell>
        <mxCell id="u66wXMgfg88VbOdrZegT-26" style="edgeStyle=none;rounded=0;orthogonalLoop=1;jettySize=auto;html=1;entryX=0;entryY=0.5;entryDx=0;entryDy=0;strokeColor=default;align=center;verticalAlign=middle;fontFamily=Helvetica;fontSize=11;fontColor=default;labelBackgroundColor=default;endArrow=classic;" edge="1" parent="u66wXMgfg88VbOdrZegT-89" source="u66wXMgfg88VbOdrZegT-2" target="u66wXMgfg88VbOdrZegT-5">
          <mxGeometry relative="1" as="geometry" />
        </mxCell>
        <mxCell id="u66wXMgfg88VbOdrZegT-27" style="edgeStyle=none;rounded=0;orthogonalLoop=1;jettySize=auto;html=1;entryX=0;entryY=0.5;entryDx=0;entryDy=0;strokeColor=default;align=center;verticalAlign=middle;fontFamily=Helvetica;fontSize=11;fontColor=default;labelBackgroundColor=default;endArrow=classic;" edge="1" parent="u66wXMgfg88VbOdrZegT-89" source="u66wXMgfg88VbOdrZegT-2" target="u66wXMgfg88VbOdrZegT-6">
          <mxGeometry relative="1" as="geometry" />
        </mxCell>
        <mxCell id="u66wXMgfg88VbOdrZegT-28" style="edgeStyle=none;rounded=0;orthogonalLoop=1;jettySize=auto;html=1;entryX=0;entryY=0.5;entryDx=0;entryDy=0;strokeColor=default;align=center;verticalAlign=middle;fontFamily=Helvetica;fontSize=11;fontColor=default;labelBackgroundColor=default;endArrow=classic;" edge="1" parent="u66wXMgfg88VbOdrZegT-89" source="u66wXMgfg88VbOdrZegT-2" target="u66wXMgfg88VbOdrZegT-7">
          <mxGeometry relative="1" as="geometry" />
        </mxCell>
        <mxCell id="u66wXMgfg88VbOdrZegT-29" style="edgeStyle=none;rounded=0;orthogonalLoop=1;jettySize=auto;html=1;entryX=0;entryY=0.5;entryDx=0;entryDy=0;strokeColor=default;align=center;verticalAlign=middle;fontFamily=Helvetica;fontSize=11;fontColor=default;labelBackgroundColor=default;endArrow=classic;" edge="1" parent="u66wXMgfg88VbOdrZegT-89" source="u66wXMgfg88VbOdrZegT-2" target="u66wXMgfg88VbOdrZegT-8">
          <mxGeometry relative="1" as="geometry" />
        </mxCell>
        <mxCell id="u66wXMgfg88VbOdrZegT-2" value="F2" style="ellipse;whiteSpace=wrap;html=1;aspect=fixed;fillColor=#647687;fontColor=#ffffff;strokeColor=#314354;" vertex="1" parent="u66wXMgfg88VbOdrZegT-89">
          <mxGeometry x="40" y="280" width="40" height="40" as="geometry" />
        </mxCell>
        <mxCell id="u66wXMgfg88VbOdrZegT-20" style="rounded=0;orthogonalLoop=1;jettySize=auto;html=1;entryX=0;entryY=0.5;entryDx=0;entryDy=0;" edge="1" parent="u66wXMgfg88VbOdrZegT-89" source="u66wXMgfg88VbOdrZegT-3" target="u66wXMgfg88VbOdrZegT-4">
          <mxGeometry relative="1" as="geometry" />
        </mxCell>
        <mxCell id="u66wXMgfg88VbOdrZegT-21" style="rounded=0;orthogonalLoop=1;jettySize=auto;html=1;entryX=0;entryY=0.5;entryDx=0;entryDy=0;" edge="1" parent="u66wXMgfg88VbOdrZegT-89" source="u66wXMgfg88VbOdrZegT-3" target="u66wXMgfg88VbOdrZegT-5">
          <mxGeometry relative="1" as="geometry" />
        </mxCell>
        <mxCell id="u66wXMgfg88VbOdrZegT-22" style="edgeStyle=none;rounded=0;orthogonalLoop=1;jettySize=auto;html=1;entryX=0;entryY=0.5;entryDx=0;entryDy=0;strokeColor=default;align=center;verticalAlign=middle;fontFamily=Helvetica;fontSize=11;fontColor=default;labelBackgroundColor=default;endArrow=classic;" edge="1" parent="u66wXMgfg88VbOdrZegT-89" source="u66wXMgfg88VbOdrZegT-3" target="u66wXMgfg88VbOdrZegT-6">
          <mxGeometry relative="1" as="geometry" />
        </mxCell>
        <mxCell id="u66wXMgfg88VbOdrZegT-23" style="edgeStyle=none;rounded=0;orthogonalLoop=1;jettySize=auto;html=1;entryX=0;entryY=0.5;entryDx=0;entryDy=0;strokeColor=default;align=center;verticalAlign=middle;fontFamily=Helvetica;fontSize=11;fontColor=default;labelBackgroundColor=default;endArrow=classic;" edge="1" parent="u66wXMgfg88VbOdrZegT-89" source="u66wXMgfg88VbOdrZegT-3" target="u66wXMgfg88VbOdrZegT-7">
          <mxGeometry relative="1" as="geometry" />
        </mxCell>
        <mxCell id="u66wXMgfg88VbOdrZegT-24" style="edgeStyle=none;rounded=0;orthogonalLoop=1;jettySize=auto;html=1;entryX=0;entryY=0.5;entryDx=0;entryDy=0;strokeColor=default;align=center;verticalAlign=middle;fontFamily=Helvetica;fontSize=11;fontColor=default;labelBackgroundColor=default;endArrow=classic;" edge="1" parent="u66wXMgfg88VbOdrZegT-89" source="u66wXMgfg88VbOdrZegT-3" target="u66wXMgfg88VbOdrZegT-8">
          <mxGeometry relative="1" as="geometry" />
        </mxCell>
        <mxCell id="u66wXMgfg88VbOdrZegT-3" value="F1" style="ellipse;whiteSpace=wrap;html=1;aspect=fixed;fillColor=#647687;fontColor=#ffffff;strokeColor=#314354;" vertex="1" parent="u66wXMgfg88VbOdrZegT-89">
          <mxGeometry x="40" y="200" width="40" height="40" as="geometry" />
        </mxCell>
        <mxCell id="u66wXMgfg88VbOdrZegT-30" style="edgeStyle=none;rounded=0;orthogonalLoop=1;jettySize=auto;html=1;entryX=0;entryY=0.5;entryDx=0;entryDy=0;strokeColor=default;align=center;verticalAlign=middle;fontFamily=Helvetica;fontSize=11;fontColor=default;labelBackgroundColor=default;endArrow=classic;" edge="1" parent="u66wXMgfg88VbOdrZegT-89" source="u66wXMgfg88VbOdrZegT-4" target="u66wXMgfg88VbOdrZegT-9">
          <mxGeometry relative="1" as="geometry" />
        </mxCell>
        <mxCell id="u66wXMgfg88VbOdrZegT-32" style="edgeStyle=none;rounded=0;orthogonalLoop=1;jettySize=auto;html=1;entryX=0;entryY=0.5;entryDx=0;entryDy=0;strokeColor=default;align=center;verticalAlign=middle;fontFamily=Helvetica;fontSize=11;fontColor=default;labelBackgroundColor=default;endArrow=classic;" edge="1" parent="u66wXMgfg88VbOdrZegT-89" source="u66wXMgfg88VbOdrZegT-4" target="u66wXMgfg88VbOdrZegT-11">
          <mxGeometry relative="1" as="geometry" />
        </mxCell>
        <mxCell id="u66wXMgfg88VbOdrZegT-33" style="edgeStyle=none;rounded=0;orthogonalLoop=1;jettySize=auto;html=1;entryX=0;entryY=0.5;entryDx=0;entryDy=0;strokeColor=default;align=center;verticalAlign=middle;fontFamily=Helvetica;fontSize=11;fontColor=default;labelBackgroundColor=default;endArrow=classic;" edge="1" parent="u66wXMgfg88VbOdrZegT-89" source="u66wXMgfg88VbOdrZegT-4" target="u66wXMgfg88VbOdrZegT-12">
          <mxGeometry relative="1" as="geometry" />
        </mxCell>
        <mxCell id="u66wXMgfg88VbOdrZegT-4" value="n101" style="ellipse;whiteSpace=wrap;html=1;aspect=fixed;fillColor=#fa6800;fontColor=#000000;strokeColor=#C73500;fontStyle=1" vertex="1" parent="u66wXMgfg88VbOdrZegT-89">
          <mxGeometry x="200" y="80" width="40" height="40" as="geometry" />
        </mxCell>
        <mxCell id="u66wXMgfg88VbOdrZegT-35" style="edgeStyle=none;rounded=0;orthogonalLoop=1;jettySize=auto;html=1;entryX=0;entryY=0.5;entryDx=0;entryDy=0;strokeColor=default;align=center;verticalAlign=middle;fontFamily=Helvetica;fontSize=11;fontColor=default;labelBackgroundColor=default;endArrow=classic;" edge="1" parent="u66wXMgfg88VbOdrZegT-89" source="u66wXMgfg88VbOdrZegT-5" target="u66wXMgfg88VbOdrZegT-9">
          <mxGeometry relative="1" as="geometry" />
        </mxCell>
        <mxCell id="u66wXMgfg88VbOdrZegT-36" style="edgeStyle=none;rounded=0;orthogonalLoop=1;jettySize=auto;html=1;strokeColor=default;align=center;verticalAlign=middle;fontFamily=Helvetica;fontSize=11;fontColor=default;labelBackgroundColor=default;endArrow=classic;" edge="1" parent="u66wXMgfg88VbOdrZegT-89" source="u66wXMgfg88VbOdrZegT-5" target="u66wXMgfg88VbOdrZegT-10">
          <mxGeometry relative="1" as="geometry" />
        </mxCell>
        <mxCell id="u66wXMgfg88VbOdrZegT-37" style="edgeStyle=none;rounded=0;orthogonalLoop=1;jettySize=auto;html=1;entryX=0;entryY=0.5;entryDx=0;entryDy=0;strokeColor=default;align=center;verticalAlign=middle;fontFamily=Helvetica;fontSize=11;fontColor=default;labelBackgroundColor=default;endArrow=classic;" edge="1" parent="u66wXMgfg88VbOdrZegT-89" source="u66wXMgfg88VbOdrZegT-5" target="u66wXMgfg88VbOdrZegT-12">
          <mxGeometry relative="1" as="geometry" />
        </mxCell>
        <mxCell id="u66wXMgfg88VbOdrZegT-78" style="edgeStyle=none;rounded=0;orthogonalLoop=1;jettySize=auto;html=1;entryX=0;entryY=0.5;entryDx=0;entryDy=0;strokeColor=default;align=center;verticalAlign=middle;fontFamily=Helvetica;fontSize=11;fontColor=default;labelBackgroundColor=default;endArrow=classic;" edge="1" parent="u66wXMgfg88VbOdrZegT-89" source="u66wXMgfg88VbOdrZegT-5" target="u66wXMgfg88VbOdrZegT-11">
          <mxGeometry relative="1" as="geometry" />
        </mxCell>
        <mxCell id="u66wXMgfg88VbOdrZegT-5" value="n102" style="ellipse;whiteSpace=wrap;html=1;aspect=fixed;fillColor=#fa6800;fontColor=#000000;strokeColor=#C73500;fontStyle=1" vertex="1" parent="u66wXMgfg88VbOdrZegT-89">
          <mxGeometry x="200" y="160" width="40" height="40" as="geometry" />
        </mxCell>
        <mxCell id="u66wXMgfg88VbOdrZegT-39" style="edgeStyle=none;rounded=0;orthogonalLoop=1;jettySize=auto;html=1;entryX=0;entryY=0.5;entryDx=0;entryDy=0;strokeColor=default;align=center;verticalAlign=middle;fontFamily=Helvetica;fontSize=11;fontColor=default;labelBackgroundColor=default;endArrow=classic;" edge="1" parent="u66wXMgfg88VbOdrZegT-89" source="u66wXMgfg88VbOdrZegT-6" target="u66wXMgfg88VbOdrZegT-9">
          <mxGeometry relative="1" as="geometry" />
        </mxCell>
        <mxCell id="u66wXMgfg88VbOdrZegT-40" style="edgeStyle=none;rounded=0;orthogonalLoop=1;jettySize=auto;html=1;entryX=0;entryY=0.5;entryDx=0;entryDy=0;strokeColor=default;align=center;verticalAlign=middle;fontFamily=Helvetica;fontSize=11;fontColor=default;labelBackgroundColor=default;endArrow=classic;" edge="1" parent="u66wXMgfg88VbOdrZegT-89" source="u66wXMgfg88VbOdrZegT-6" target="u66wXMgfg88VbOdrZegT-10">
          <mxGeometry relative="1" as="geometry" />
        </mxCell>
        <mxCell id="u66wXMgfg88VbOdrZegT-41" style="edgeStyle=none;rounded=0;orthogonalLoop=1;jettySize=auto;html=1;entryX=0;entryY=0.5;entryDx=0;entryDy=0;strokeColor=default;align=center;verticalAlign=middle;fontFamily=Helvetica;fontSize=11;fontColor=default;labelBackgroundColor=default;endArrow=classic;" edge="1" parent="u66wXMgfg88VbOdrZegT-89" source="u66wXMgfg88VbOdrZegT-6" target="u66wXMgfg88VbOdrZegT-12">
          <mxGeometry relative="1" as="geometry" />
        </mxCell>
        <mxCell id="u66wXMgfg88VbOdrZegT-42" style="edgeStyle=none;rounded=0;orthogonalLoop=1;jettySize=auto;html=1;entryX=0;entryY=0.5;entryDx=0;entryDy=0;strokeColor=default;align=center;verticalAlign=middle;fontFamily=Helvetica;fontSize=11;fontColor=default;labelBackgroundColor=default;endArrow=classic;" edge="1" parent="u66wXMgfg88VbOdrZegT-89" source="u66wXMgfg88VbOdrZegT-6" target="u66wXMgfg88VbOdrZegT-13">
          <mxGeometry relative="1" as="geometry" />
        </mxCell>
        <mxCell id="u66wXMgfg88VbOdrZegT-6" value="n103" style="ellipse;whiteSpace=wrap;html=1;aspect=fixed;fillColor=#fa6800;fontColor=#000000;strokeColor=#C73500;fontStyle=1" vertex="1" parent="u66wXMgfg88VbOdrZegT-89">
          <mxGeometry x="200" y="240" width="40" height="40" as="geometry" />
        </mxCell>
        <mxCell id="u66wXMgfg88VbOdrZegT-43" style="edgeStyle=none;rounded=0;orthogonalLoop=1;jettySize=auto;html=1;entryX=0;entryY=0.5;entryDx=0;entryDy=0;strokeColor=default;align=center;verticalAlign=middle;fontFamily=Helvetica;fontSize=11;fontColor=default;labelBackgroundColor=default;endArrow=classic;" edge="1" parent="u66wXMgfg88VbOdrZegT-89" source="u66wXMgfg88VbOdrZegT-7" target="u66wXMgfg88VbOdrZegT-9">
          <mxGeometry relative="1" as="geometry" />
        </mxCell>
        <mxCell id="u66wXMgfg88VbOdrZegT-44" style="edgeStyle=none;rounded=0;orthogonalLoop=1;jettySize=auto;html=1;entryX=0;entryY=0.5;entryDx=0;entryDy=0;strokeColor=default;align=center;verticalAlign=middle;fontFamily=Helvetica;fontSize=11;fontColor=default;labelBackgroundColor=default;endArrow=classic;" edge="1" parent="u66wXMgfg88VbOdrZegT-89" source="u66wXMgfg88VbOdrZegT-7" target="u66wXMgfg88VbOdrZegT-10">
          <mxGeometry relative="1" as="geometry" />
        </mxCell>
        <mxCell id="u66wXMgfg88VbOdrZegT-45" style="edgeStyle=none;rounded=0;orthogonalLoop=1;jettySize=auto;html=1;strokeColor=default;align=center;verticalAlign=middle;fontFamily=Helvetica;fontSize=11;fontColor=default;labelBackgroundColor=default;endArrow=classic;" edge="1" parent="u66wXMgfg88VbOdrZegT-89" source="u66wXMgfg88VbOdrZegT-7" target="u66wXMgfg88VbOdrZegT-12">
          <mxGeometry relative="1" as="geometry" />
        </mxCell>
        <mxCell id="u66wXMgfg88VbOdrZegT-46" style="edgeStyle=none;rounded=0;orthogonalLoop=1;jettySize=auto;html=1;entryX=0;entryY=0.5;entryDx=0;entryDy=0;strokeColor=default;align=center;verticalAlign=middle;fontFamily=Helvetica;fontSize=11;fontColor=default;labelBackgroundColor=default;endArrow=classic;" edge="1" parent="u66wXMgfg88VbOdrZegT-89" source="u66wXMgfg88VbOdrZegT-7" target="u66wXMgfg88VbOdrZegT-13">
          <mxGeometry relative="1" as="geometry" />
        </mxCell>
        <mxCell id="u66wXMgfg88VbOdrZegT-47" style="edgeStyle=none;rounded=0;orthogonalLoop=1;jettySize=auto;html=1;entryX=0;entryY=0.5;entryDx=0;entryDy=0;strokeColor=default;align=center;verticalAlign=middle;fontFamily=Helvetica;fontSize=11;fontColor=default;labelBackgroundColor=default;endArrow=classic;" edge="1" parent="u66wXMgfg88VbOdrZegT-89" source="u66wXMgfg88VbOdrZegT-7" target="u66wXMgfg88VbOdrZegT-11">
          <mxGeometry relative="1" as="geometry" />
        </mxCell>
        <mxCell id="u66wXMgfg88VbOdrZegT-7" value="..." style="ellipse;whiteSpace=wrap;html=1;aspect=fixed;fillColor=#fa6800;fontColor=#000000;strokeColor=#C73500;fontStyle=1" vertex="1" parent="u66wXMgfg88VbOdrZegT-89">
          <mxGeometry x="200" y="320" width="40" height="40" as="geometry" />
        </mxCell>
        <mxCell id="u66wXMgfg88VbOdrZegT-49" style="edgeStyle=none;rounded=0;orthogonalLoop=1;jettySize=auto;html=1;entryX=0;entryY=0.5;entryDx=0;entryDy=0;strokeColor=default;align=center;verticalAlign=middle;fontFamily=Helvetica;fontSize=11;fontColor=default;labelBackgroundColor=default;endArrow=classic;" edge="1" parent="u66wXMgfg88VbOdrZegT-89" source="u66wXMgfg88VbOdrZegT-8" target="u66wXMgfg88VbOdrZegT-10">
          <mxGeometry relative="1" as="geometry" />
        </mxCell>
        <mxCell id="u66wXMgfg88VbOdrZegT-50" style="edgeStyle=none;rounded=0;orthogonalLoop=1;jettySize=auto;html=1;entryX=0;entryY=0.5;entryDx=0;entryDy=0;strokeColor=default;align=center;verticalAlign=middle;fontFamily=Helvetica;fontSize=11;fontColor=default;labelBackgroundColor=default;endArrow=classic;" edge="1" parent="u66wXMgfg88VbOdrZegT-89" source="u66wXMgfg88VbOdrZegT-8" target="u66wXMgfg88VbOdrZegT-11">
          <mxGeometry relative="1" as="geometry" />
        </mxCell>
        <mxCell id="u66wXMgfg88VbOdrZegT-51" style="edgeStyle=none;rounded=0;orthogonalLoop=1;jettySize=auto;html=1;entryX=0;entryY=0.5;entryDx=0;entryDy=0;strokeColor=default;align=center;verticalAlign=middle;fontFamily=Helvetica;fontSize=11;fontColor=default;labelBackgroundColor=default;endArrow=classic;" edge="1" parent="u66wXMgfg88VbOdrZegT-89" source="u66wXMgfg88VbOdrZegT-8" target="u66wXMgfg88VbOdrZegT-12">
          <mxGeometry relative="1" as="geometry" />
        </mxCell>
        <mxCell id="u66wXMgfg88VbOdrZegT-52" style="edgeStyle=none;rounded=0;orthogonalLoop=1;jettySize=auto;html=1;strokeColor=default;align=center;verticalAlign=middle;fontFamily=Helvetica;fontSize=11;fontColor=default;labelBackgroundColor=default;endArrow=classic;" edge="1" parent="u66wXMgfg88VbOdrZegT-89" source="u66wXMgfg88VbOdrZegT-8" target="u66wXMgfg88VbOdrZegT-13">
          <mxGeometry relative="1" as="geometry">
            <mxPoint x="370" y="420" as="targetPoint" />
          </mxGeometry>
        </mxCell>
        <mxCell id="u66wXMgfg88VbOdrZegT-8" value="n110" style="ellipse;whiteSpace=wrap;html=1;aspect=fixed;fillColor=#fa6800;fontColor=#000000;strokeColor=#C73500;fontStyle=1" vertex="1" parent="u66wXMgfg88VbOdrZegT-89">
          <mxGeometry x="200" y="400" width="40" height="40" as="geometry" />
        </mxCell>
        <mxCell id="u66wXMgfg88VbOdrZegT-73" style="edgeStyle=none;rounded=0;orthogonalLoop=1;jettySize=auto;html=1;strokeColor=default;align=center;verticalAlign=middle;fontFamily=Helvetica;fontSize=11;fontColor=default;labelBackgroundColor=default;endArrow=classic;" edge="1" parent="u66wXMgfg88VbOdrZegT-89" source="u66wXMgfg88VbOdrZegT-9" target="u66wXMgfg88VbOdrZegT-14">
          <mxGeometry relative="1" as="geometry" />
        </mxCell>
        <mxCell id="u66wXMgfg88VbOdrZegT-74" style="edgeStyle=none;rounded=0;orthogonalLoop=1;jettySize=auto;html=1;entryX=0;entryY=0.5;entryDx=0;entryDy=0;strokeColor=default;align=center;verticalAlign=middle;fontFamily=Helvetica;fontSize=11;fontColor=default;labelBackgroundColor=default;endArrow=classic;" edge="1" parent="u66wXMgfg88VbOdrZegT-89" source="u66wXMgfg88VbOdrZegT-9" target="u66wXMgfg88VbOdrZegT-15">
          <mxGeometry relative="1" as="geometry" />
        </mxCell>
        <mxCell id="u66wXMgfg88VbOdrZegT-75" style="edgeStyle=none;rounded=0;orthogonalLoop=1;jettySize=auto;html=1;strokeColor=default;align=center;verticalAlign=middle;fontFamily=Helvetica;fontSize=11;fontColor=default;labelBackgroundColor=default;endArrow=classic;" edge="1" parent="u66wXMgfg88VbOdrZegT-89" source="u66wXMgfg88VbOdrZegT-9">
          <mxGeometry relative="1" as="geometry">
            <mxPoint x="440" y="260" as="targetPoint" />
          </mxGeometry>
        </mxCell>
        <mxCell id="u66wXMgfg88VbOdrZegT-76" style="edgeStyle=none;rounded=0;orthogonalLoop=1;jettySize=auto;html=1;strokeColor=default;align=center;verticalAlign=middle;fontFamily=Helvetica;fontSize=11;fontColor=default;labelBackgroundColor=default;endArrow=classic;" edge="1" parent="u66wXMgfg88VbOdrZegT-89" source="u66wXMgfg88VbOdrZegT-9">
          <mxGeometry relative="1" as="geometry">
            <mxPoint x="440" y="340" as="targetPoint" />
          </mxGeometry>
        </mxCell>
        <mxCell id="u66wXMgfg88VbOdrZegT-77" style="edgeStyle=none;rounded=0;orthogonalLoop=1;jettySize=auto;html=1;strokeColor=default;align=center;verticalAlign=middle;fontFamily=Helvetica;fontSize=11;fontColor=default;labelBackgroundColor=default;endArrow=classic;" edge="1" parent="u66wXMgfg88VbOdrZegT-89" source="u66wXMgfg88VbOdrZegT-9">
          <mxGeometry relative="1" as="geometry">
            <mxPoint x="440" y="420" as="targetPoint" />
          </mxGeometry>
        </mxCell>
        <mxCell id="u66wXMgfg88VbOdrZegT-9" value="n201" style="ellipse;whiteSpace=wrap;html=1;aspect=fixed;fillColor=#fa6800;fontColor=#000000;strokeColor=#C73500;fontStyle=1" vertex="1" parent="u66wXMgfg88VbOdrZegT-89">
          <mxGeometry x="314" y="80" width="40" height="40" as="geometry" />
        </mxCell>
        <mxCell id="u66wXMgfg88VbOdrZegT-68" style="edgeStyle=none;rounded=0;orthogonalLoop=1;jettySize=auto;html=1;entryX=0;entryY=0.5;entryDx=0;entryDy=0;strokeColor=default;align=center;verticalAlign=middle;fontFamily=Helvetica;fontSize=11;fontColor=default;labelBackgroundColor=default;endArrow=classic;" edge="1" parent="u66wXMgfg88VbOdrZegT-89" source="u66wXMgfg88VbOdrZegT-10" target="u66wXMgfg88VbOdrZegT-18">
          <mxGeometry relative="1" as="geometry" />
        </mxCell>
        <mxCell id="u66wXMgfg88VbOdrZegT-69" style="edgeStyle=none;rounded=0;orthogonalLoop=1;jettySize=auto;html=1;entryX=0;entryY=0.5;entryDx=0;entryDy=0;strokeColor=default;align=center;verticalAlign=middle;fontFamily=Helvetica;fontSize=11;fontColor=default;labelBackgroundColor=default;endArrow=classic;" edge="1" parent="u66wXMgfg88VbOdrZegT-89" source="u66wXMgfg88VbOdrZegT-10" target="u66wXMgfg88VbOdrZegT-17">
          <mxGeometry relative="1" as="geometry" />
        </mxCell>
        <mxCell id="u66wXMgfg88VbOdrZegT-70" style="edgeStyle=none;rounded=0;orthogonalLoop=1;jettySize=auto;html=1;entryX=0;entryY=0.5;entryDx=0;entryDy=0;strokeColor=default;align=center;verticalAlign=middle;fontFamily=Helvetica;fontSize=11;fontColor=default;labelBackgroundColor=default;endArrow=classic;" edge="1" parent="u66wXMgfg88VbOdrZegT-89" source="u66wXMgfg88VbOdrZegT-10" target="u66wXMgfg88VbOdrZegT-16">
          <mxGeometry relative="1" as="geometry" />
        </mxCell>
        <mxCell id="u66wXMgfg88VbOdrZegT-71" style="edgeStyle=none;rounded=0;orthogonalLoop=1;jettySize=auto;html=1;entryX=0;entryY=0.5;entryDx=0;entryDy=0;strokeColor=default;align=center;verticalAlign=middle;fontFamily=Helvetica;fontSize=11;fontColor=default;labelBackgroundColor=default;endArrow=classic;" edge="1" parent="u66wXMgfg88VbOdrZegT-89" source="u66wXMgfg88VbOdrZegT-10" target="u66wXMgfg88VbOdrZegT-15">
          <mxGeometry relative="1" as="geometry" />
        </mxCell>
        <mxCell id="u66wXMgfg88VbOdrZegT-72" style="edgeStyle=none;rounded=0;orthogonalLoop=1;jettySize=auto;html=1;entryX=0;entryY=0.5;entryDx=0;entryDy=0;strokeColor=default;align=center;verticalAlign=middle;fontFamily=Helvetica;fontSize=11;fontColor=default;labelBackgroundColor=default;endArrow=classic;" edge="1" parent="u66wXMgfg88VbOdrZegT-89" source="u66wXMgfg88VbOdrZegT-10" target="u66wXMgfg88VbOdrZegT-14">
          <mxGeometry relative="1" as="geometry" />
        </mxCell>
        <mxCell id="u66wXMgfg88VbOdrZegT-10" value="n202" style="ellipse;whiteSpace=wrap;html=1;aspect=fixed;fillColor=#fa6800;fontColor=#000000;strokeColor=#C73500;fontStyle=1" vertex="1" parent="u66wXMgfg88VbOdrZegT-89">
          <mxGeometry x="314" y="160" width="40" height="40" as="geometry" />
        </mxCell>
        <mxCell id="u66wXMgfg88VbOdrZegT-63" style="edgeStyle=none;rounded=0;orthogonalLoop=1;jettySize=auto;html=1;entryX=0;entryY=0.5;entryDx=0;entryDy=0;strokeColor=default;align=center;verticalAlign=middle;fontFamily=Helvetica;fontSize=11;fontColor=default;labelBackgroundColor=default;endArrow=classic;" edge="1" parent="u66wXMgfg88VbOdrZegT-89" source="u66wXMgfg88VbOdrZegT-11" target="u66wXMgfg88VbOdrZegT-18">
          <mxGeometry relative="1" as="geometry" />
        </mxCell>
        <mxCell id="u66wXMgfg88VbOdrZegT-64" style="edgeStyle=none;rounded=0;orthogonalLoop=1;jettySize=auto;html=1;entryX=0;entryY=0.5;entryDx=0;entryDy=0;strokeColor=default;align=center;verticalAlign=middle;fontFamily=Helvetica;fontSize=11;fontColor=default;labelBackgroundColor=default;endArrow=classic;" edge="1" parent="u66wXMgfg88VbOdrZegT-89" source="u66wXMgfg88VbOdrZegT-11" target="u66wXMgfg88VbOdrZegT-17">
          <mxGeometry relative="1" as="geometry" />
        </mxCell>
        <mxCell id="u66wXMgfg88VbOdrZegT-65" style="edgeStyle=none;rounded=0;orthogonalLoop=1;jettySize=auto;html=1;strokeColor=default;align=center;verticalAlign=middle;fontFamily=Helvetica;fontSize=11;fontColor=default;labelBackgroundColor=default;endArrow=classic;" edge="1" parent="u66wXMgfg88VbOdrZegT-89" source="u66wXMgfg88VbOdrZegT-11" target="u66wXMgfg88VbOdrZegT-16">
          <mxGeometry relative="1" as="geometry" />
        </mxCell>
        <mxCell id="u66wXMgfg88VbOdrZegT-66" style="edgeStyle=none;rounded=0;orthogonalLoop=1;jettySize=auto;html=1;entryX=0;entryY=0.5;entryDx=0;entryDy=0;strokeColor=default;align=center;verticalAlign=middle;fontFamily=Helvetica;fontSize=11;fontColor=default;labelBackgroundColor=default;endArrow=classic;" edge="1" parent="u66wXMgfg88VbOdrZegT-89" source="u66wXMgfg88VbOdrZegT-11" target="u66wXMgfg88VbOdrZegT-15">
          <mxGeometry relative="1" as="geometry" />
        </mxCell>
        <mxCell id="u66wXMgfg88VbOdrZegT-67" style="edgeStyle=none;rounded=0;orthogonalLoop=1;jettySize=auto;html=1;entryX=0;entryY=0.5;entryDx=0;entryDy=0;strokeColor=default;align=center;verticalAlign=middle;fontFamily=Helvetica;fontSize=11;fontColor=default;labelBackgroundColor=default;endArrow=classic;" edge="1" parent="u66wXMgfg88VbOdrZegT-89" source="u66wXMgfg88VbOdrZegT-11" target="u66wXMgfg88VbOdrZegT-14">
          <mxGeometry relative="1" as="geometry" />
        </mxCell>
        <mxCell id="u66wXMgfg88VbOdrZegT-11" value="n203" style="ellipse;whiteSpace=wrap;html=1;aspect=fixed;fillColor=#fa6800;fontColor=#000000;strokeColor=#C73500;fontStyle=1" vertex="1" parent="u66wXMgfg88VbOdrZegT-89">
          <mxGeometry x="314" y="240" width="40" height="40" as="geometry" />
        </mxCell>
        <mxCell id="u66wXMgfg88VbOdrZegT-59" style="edgeStyle=none;rounded=0;orthogonalLoop=1;jettySize=auto;html=1;entryX=0;entryY=0.5;entryDx=0;entryDy=0;strokeColor=default;align=center;verticalAlign=middle;fontFamily=Helvetica;fontSize=11;fontColor=default;labelBackgroundColor=default;endArrow=classic;" edge="1" parent="u66wXMgfg88VbOdrZegT-89" source="u66wXMgfg88VbOdrZegT-12" target="u66wXMgfg88VbOdrZegT-17">
          <mxGeometry relative="1" as="geometry" />
        </mxCell>
        <mxCell id="u66wXMgfg88VbOdrZegT-60" style="edgeStyle=none;rounded=0;orthogonalLoop=1;jettySize=auto;html=1;entryX=0;entryY=0.5;entryDx=0;entryDy=0;strokeColor=default;align=center;verticalAlign=middle;fontFamily=Helvetica;fontSize=11;fontColor=default;labelBackgroundColor=default;endArrow=classic;" edge="1" parent="u66wXMgfg88VbOdrZegT-89" source="u66wXMgfg88VbOdrZegT-12" target="u66wXMgfg88VbOdrZegT-16">
          <mxGeometry relative="1" as="geometry" />
        </mxCell>
        <mxCell id="u66wXMgfg88VbOdrZegT-61" style="edgeStyle=none;rounded=0;orthogonalLoop=1;jettySize=auto;html=1;entryX=0;entryY=0.5;entryDx=0;entryDy=0;strokeColor=default;align=center;verticalAlign=middle;fontFamily=Helvetica;fontSize=11;fontColor=default;labelBackgroundColor=default;endArrow=classic;" edge="1" parent="u66wXMgfg88VbOdrZegT-89" source="u66wXMgfg88VbOdrZegT-12" target="u66wXMgfg88VbOdrZegT-15">
          <mxGeometry relative="1" as="geometry" />
        </mxCell>
        <mxCell id="u66wXMgfg88VbOdrZegT-62" style="edgeStyle=none;rounded=0;orthogonalLoop=1;jettySize=auto;html=1;entryX=0;entryY=0.5;entryDx=0;entryDy=0;strokeColor=default;align=center;verticalAlign=middle;fontFamily=Helvetica;fontSize=11;fontColor=default;labelBackgroundColor=default;endArrow=classic;" edge="1" parent="u66wXMgfg88VbOdrZegT-89" source="u66wXMgfg88VbOdrZegT-12" target="u66wXMgfg88VbOdrZegT-14">
          <mxGeometry relative="1" as="geometry" />
        </mxCell>
        <mxCell id="u66wXMgfg88VbOdrZegT-12" value="..." style="ellipse;whiteSpace=wrap;html=1;aspect=fixed;fillColor=#fa6800;fontColor=#000000;strokeColor=#C73500;fontStyle=1" vertex="1" parent="u66wXMgfg88VbOdrZegT-89">
          <mxGeometry x="314" y="320" width="40" height="40" as="geometry" />
        </mxCell>
        <mxCell id="u66wXMgfg88VbOdrZegT-53" value="" style="edgeStyle=none;rounded=0;orthogonalLoop=1;jettySize=auto;html=1;strokeColor=default;align=center;verticalAlign=middle;fontFamily=Helvetica;fontSize=11;fontColor=default;labelBackgroundColor=default;endArrow=classic;" edge="1" parent="u66wXMgfg88VbOdrZegT-89" source="u66wXMgfg88VbOdrZegT-13" target="u66wXMgfg88VbOdrZegT-18">
          <mxGeometry relative="1" as="geometry" />
        </mxCell>
        <mxCell id="u66wXMgfg88VbOdrZegT-54" style="edgeStyle=none;rounded=0;orthogonalLoop=1;jettySize=auto;html=1;entryX=0;entryY=0.5;entryDx=0;entryDy=0;strokeColor=default;align=center;verticalAlign=middle;fontFamily=Helvetica;fontSize=11;fontColor=default;labelBackgroundColor=default;endArrow=classic;" edge="1" parent="u66wXMgfg88VbOdrZegT-89" source="u66wXMgfg88VbOdrZegT-13" target="u66wXMgfg88VbOdrZegT-17">
          <mxGeometry relative="1" as="geometry" />
        </mxCell>
        <mxCell id="u66wXMgfg88VbOdrZegT-55" style="edgeStyle=none;rounded=0;orthogonalLoop=1;jettySize=auto;html=1;entryX=0;entryY=0.5;entryDx=0;entryDy=0;strokeColor=default;align=center;verticalAlign=middle;fontFamily=Helvetica;fontSize=11;fontColor=default;labelBackgroundColor=default;endArrow=classic;" edge="1" parent="u66wXMgfg88VbOdrZegT-89" source="u66wXMgfg88VbOdrZegT-13" target="u66wXMgfg88VbOdrZegT-16">
          <mxGeometry relative="1" as="geometry" />
        </mxCell>
        <mxCell id="u66wXMgfg88VbOdrZegT-56" style="edgeStyle=none;rounded=0;orthogonalLoop=1;jettySize=auto;html=1;entryX=0;entryY=0.5;entryDx=0;entryDy=0;strokeColor=default;align=center;verticalAlign=middle;fontFamily=Helvetica;fontSize=11;fontColor=default;labelBackgroundColor=default;endArrow=classic;" edge="1" parent="u66wXMgfg88VbOdrZegT-89" source="u66wXMgfg88VbOdrZegT-13" target="u66wXMgfg88VbOdrZegT-15">
          <mxGeometry relative="1" as="geometry" />
        </mxCell>
        <mxCell id="u66wXMgfg88VbOdrZegT-57" style="edgeStyle=none;rounded=0;orthogonalLoop=1;jettySize=auto;html=1;entryX=0;entryY=0.5;entryDx=0;entryDy=0;strokeColor=default;align=center;verticalAlign=middle;fontFamily=Helvetica;fontSize=11;fontColor=default;labelBackgroundColor=default;endArrow=classic;" edge="1" parent="u66wXMgfg88VbOdrZegT-89" source="u66wXMgfg88VbOdrZegT-13" target="u66wXMgfg88VbOdrZegT-14">
          <mxGeometry relative="1" as="geometry" />
        </mxCell>
        <mxCell id="u66wXMgfg88VbOdrZegT-13" value="n220" style="ellipse;whiteSpace=wrap;html=1;aspect=fixed;fillColor=#fa6800;fontColor=#000000;strokeColor=#C73500;fontStyle=1" vertex="1" parent="u66wXMgfg88VbOdrZegT-89">
          <mxGeometry x="314" y="400" width="40" height="40" as="geometry" />
        </mxCell>
        <mxCell id="u66wXMgfg88VbOdrZegT-79" style="edgeStyle=none;rounded=0;orthogonalLoop=1;jettySize=auto;html=1;strokeColor=default;align=center;verticalAlign=middle;fontFamily=Helvetica;fontSize=11;fontColor=default;labelBackgroundColor=default;endArrow=classic;entryX=0;entryY=0.5;entryDx=0;entryDy=0;" edge="1" parent="u66wXMgfg88VbOdrZegT-89" source="u66wXMgfg88VbOdrZegT-14" target="u66wXMgfg88VbOdrZegT-19">
          <mxGeometry relative="1" as="geometry" />
        </mxCell>
        <mxCell id="u66wXMgfg88VbOdrZegT-14" value="n301" style="ellipse;whiteSpace=wrap;html=1;aspect=fixed;fillColor=#fa6800;fontColor=#000000;strokeColor=#C73500;fontStyle=1" vertex="1" parent="u66wXMgfg88VbOdrZegT-89">
          <mxGeometry x="440" y="80" width="40" height="40" as="geometry" />
        </mxCell>
        <mxCell id="u66wXMgfg88VbOdrZegT-80" style="edgeStyle=none;rounded=0;orthogonalLoop=1;jettySize=auto;html=1;entryX=0;entryY=0.5;entryDx=0;entryDy=0;strokeColor=default;align=center;verticalAlign=middle;fontFamily=Helvetica;fontSize=11;fontColor=default;labelBackgroundColor=default;endArrow=classic;" edge="1" parent="u66wXMgfg88VbOdrZegT-89" source="u66wXMgfg88VbOdrZegT-15" target="u66wXMgfg88VbOdrZegT-19">
          <mxGeometry relative="1" as="geometry" />
        </mxCell>
        <mxCell id="u66wXMgfg88VbOdrZegT-15" value="n302" style="ellipse;whiteSpace=wrap;html=1;aspect=fixed;fillColor=#fa6800;fontColor=#000000;strokeColor=#C73500;fontStyle=1" vertex="1" parent="u66wXMgfg88VbOdrZegT-89">
          <mxGeometry x="440" y="160" width="40" height="40" as="geometry" />
        </mxCell>
        <mxCell id="u66wXMgfg88VbOdrZegT-81" style="edgeStyle=none;rounded=0;orthogonalLoop=1;jettySize=auto;html=1;entryX=0;entryY=0.5;entryDx=0;entryDy=0;strokeColor=default;align=center;verticalAlign=middle;fontFamily=Helvetica;fontSize=11;fontColor=default;labelBackgroundColor=default;endArrow=classic;" edge="1" parent="u66wXMgfg88VbOdrZegT-89" source="u66wXMgfg88VbOdrZegT-16" target="u66wXMgfg88VbOdrZegT-19">
          <mxGeometry relative="1" as="geometry" />
        </mxCell>
        <mxCell id="u66wXMgfg88VbOdrZegT-16" value="n303" style="ellipse;whiteSpace=wrap;html=1;aspect=fixed;fillColor=#fa6800;fontColor=#000000;strokeColor=#C73500;fontStyle=1" vertex="1" parent="u66wXMgfg88VbOdrZegT-89">
          <mxGeometry x="440" y="240" width="40" height="40" as="geometry" />
        </mxCell>
        <mxCell id="u66wXMgfg88VbOdrZegT-82" style="edgeStyle=none;rounded=0;orthogonalLoop=1;jettySize=auto;html=1;entryX=0;entryY=0.5;entryDx=0;entryDy=0;strokeColor=default;align=center;verticalAlign=middle;fontFamily=Helvetica;fontSize=11;fontColor=default;labelBackgroundColor=default;endArrow=classic;" edge="1" parent="u66wXMgfg88VbOdrZegT-89" source="u66wXMgfg88VbOdrZegT-17" target="u66wXMgfg88VbOdrZegT-19">
          <mxGeometry relative="1" as="geometry" />
        </mxCell>
        <mxCell id="u66wXMgfg88VbOdrZegT-17" value="..." style="ellipse;whiteSpace=wrap;html=1;aspect=fixed;fillColor=#fa6800;fontColor=#000000;strokeColor=#C73500;fontStyle=1" vertex="1" parent="u66wXMgfg88VbOdrZegT-89">
          <mxGeometry x="440" y="320" width="40" height="40" as="geometry" />
        </mxCell>
        <mxCell id="u66wXMgfg88VbOdrZegT-83" style="edgeStyle=none;rounded=0;orthogonalLoop=1;jettySize=auto;html=1;entryX=0;entryY=0.5;entryDx=0;entryDy=0;strokeColor=default;align=center;verticalAlign=middle;fontFamily=Helvetica;fontSize=11;fontColor=default;labelBackgroundColor=default;endArrow=classic;" edge="1" parent="u66wXMgfg88VbOdrZegT-89" source="u66wXMgfg88VbOdrZegT-18" target="u66wXMgfg88VbOdrZegT-19">
          <mxGeometry relative="1" as="geometry" />
        </mxCell>
        <mxCell id="u66wXMgfg88VbOdrZegT-18" value="n310" style="ellipse;whiteSpace=wrap;html=1;aspect=fixed;fillColor=#fa6800;fontColor=#000000;strokeColor=#C73500;fontStyle=1" vertex="1" parent="u66wXMgfg88VbOdrZegT-89">
          <mxGeometry x="440" y="400" width="40" height="40" as="geometry" />
        </mxCell>
        <mxCell id="u66wXMgfg88VbOdrZegT-19" value="O1" style="ellipse;whiteSpace=wrap;html=1;aspect=fixed;fillColor=#6d8764;fontColor=#ffffff;strokeColor=#3A5431;" vertex="1" parent="u66wXMgfg88VbOdrZegT-89">
          <mxGeometry x="600" y="240" width="40" height="40" as="geometry" />
        </mxCell>
        <mxCell id="u66wXMgfg88VbOdrZegT-31" style="edgeStyle=none;rounded=0;orthogonalLoop=1;jettySize=auto;html=1;entryX=0;entryY=0.5;entryDx=0;entryDy=0;strokeColor=default;align=center;verticalAlign=middle;fontFamily=Helvetica;fontSize=11;fontColor=default;labelBackgroundColor=default;endArrow=classic;" edge="1" parent="u66wXMgfg88VbOdrZegT-89" source="u66wXMgfg88VbOdrZegT-4" target="u66wXMgfg88VbOdrZegT-10">
          <mxGeometry relative="1" as="geometry" />
        </mxCell>
        <mxCell id="u66wXMgfg88VbOdrZegT-34" style="edgeStyle=none;rounded=0;orthogonalLoop=1;jettySize=auto;html=1;entryX=0;entryY=0.5;entryDx=0;entryDy=0;strokeColor=default;align=center;verticalAlign=middle;fontFamily=Helvetica;fontSize=11;fontColor=default;labelBackgroundColor=default;endArrow=classic;" edge="1" parent="u66wXMgfg88VbOdrZegT-89" source="u66wXMgfg88VbOdrZegT-4" target="u66wXMgfg88VbOdrZegT-13">
          <mxGeometry relative="1" as="geometry" />
        </mxCell>
        <mxCell id="u66wXMgfg88VbOdrZegT-38" style="edgeStyle=none;rounded=0;orthogonalLoop=1;jettySize=auto;html=1;entryX=0;entryY=0.5;entryDx=0;entryDy=0;strokeColor=default;align=center;verticalAlign=middle;fontFamily=Helvetica;fontSize=11;fontColor=default;labelBackgroundColor=default;endArrow=classic;" edge="1" parent="u66wXMgfg88VbOdrZegT-89" source="u66wXMgfg88VbOdrZegT-5" target="u66wXMgfg88VbOdrZegT-13">
          <mxGeometry relative="1" as="geometry" />
        </mxCell>
        <mxCell id="u66wXMgfg88VbOdrZegT-48" style="edgeStyle=none;rounded=0;orthogonalLoop=1;jettySize=auto;html=1;entryX=0;entryY=0.5;entryDx=0;entryDy=0;strokeColor=default;align=center;verticalAlign=middle;fontFamily=Helvetica;fontSize=11;fontColor=default;labelBackgroundColor=default;endArrow=classic;" edge="1" parent="u66wXMgfg88VbOdrZegT-89" source="u66wXMgfg88VbOdrZegT-8" target="u66wXMgfg88VbOdrZegT-9">
          <mxGeometry relative="1" as="geometry" />
        </mxCell>
        <mxCell id="u66wXMgfg88VbOdrZegT-58" style="edgeStyle=none;rounded=0;orthogonalLoop=1;jettySize=auto;html=1;entryX=0;entryY=0.5;entryDx=0;entryDy=0;strokeColor=default;align=center;verticalAlign=middle;fontFamily=Helvetica;fontSize=11;fontColor=default;labelBackgroundColor=default;endArrow=classic;" edge="1" parent="u66wXMgfg88VbOdrZegT-89" source="u66wXMgfg88VbOdrZegT-12" target="u66wXMgfg88VbOdrZegT-18">
          <mxGeometry relative="1" as="geometry" />
        </mxCell>
        <mxCell id="u66wXMgfg88VbOdrZegT-84" value="Hidden Layer" style="text;html=1;align=center;verticalAlign=middle;whiteSpace=wrap;rounded=0;fontFamily=Helvetica;fontSize=20;fontColor=default;labelBackgroundColor=default;fontStyle=1" vertex="1" parent="u66wXMgfg88VbOdrZegT-89">
          <mxGeometry x="200" y="40" width="280" height="30" as="geometry" />
        </mxCell>
        <mxCell id="u66wXMgfg88VbOdrZegT-85" value="Outputs&lt;div&gt;Layer&lt;/div&gt;" style="text;html=1;align=center;verticalAlign=middle;whiteSpace=wrap;rounded=0;fontFamily=Helvetica;fontSize=20;fontColor=default;labelBackgroundColor=default;fontStyle=1" vertex="1" parent="u66wXMgfg88VbOdrZegT-89">
          <mxGeometry x="580" y="140" width="80" height="30" as="geometry" />
        </mxCell>
        <mxCell id="u66wXMgfg88VbOdrZegT-86" value="Input&lt;div&gt;Layer&lt;/div&gt;" style="text;html=1;align=center;verticalAlign=middle;whiteSpace=wrap;rounded=0;fontFamily=Helvetica;fontSize=20;fontColor=default;labelBackgroundColor=default;fontStyle=1" vertex="1" parent="u66wXMgfg88VbOdrZegT-89">
          <mxGeometry x="20" y="140" width="80" height="30" as="geometry" />
        </mxCell>
      </root>
    </mxGraphModel>
  </diagram>
</mxfile>
